<svg xmlns="http://www.w3.org/2000/svg" style="display: none;"><symbol id="nc-code" viewBox="0 0 60 60"><title>code</title><g><g class="nc-icon-wrapper" fill="currentColor"><path d="M18 26c-2.206 0-4 1.794-4 4s1.794 4 4 4 4-1.794 4-4-1.794-4-4-4zm0 6c-1.103 0-2-.897-2-2s.897-2 2-2 2 .897 2 2-.897 2-2 2z"/><path d="M30 26c-2.206 0-4 1.794-4 4s1.794 4 4 4 4-1.794 4-4-1.794-4-4-4zm0 6c-1.103 0-2-.897-2-2s.897-2 2-2 2 .897 2 2-.897 2-2 2z"/><path d="M46 30c0-2.206-1.794-4-4-4s-4 1.794-4 4 1.794 4 4 4 4-1.794 4-4zm-4 2c-1.103 0-2-.897-2-2s.897-2 2-2 2 .897 2 2-.897 2-2 2z"/><path d="M2.414 30l13.293-13.293a.999.999 0 1 0-1.414-1.414l-14 14a.999.999 0 0 0 0 1.414l14 14a.997.997 0 0 0 1.414 0 .999.999 0 0 0 0-1.414L2.414 30z"/><path d="M59.707 29.293l-14-14a.999.999 0 1 0-1.414 1.414L57.586 30 44.293 43.293a.999.999 0 1 0 1.414 1.414l14-14a.999.999 0 0 0 0-1.414z"/></g></g></symbol><symbol id="nc-art" viewBox="0 0 58 58"><title>art</title><g><g class="nc-icon-wrapper" fill="currentColor"><path d="M57 6H1a1 1 0 0 0-1 1v44a1 1 0 0 0 1 1h56a1 1 0 0 0 1-1V7a1 1 0 0 0-1-1zm-1 44H2V8h54v42z"/><path d="M16 28.138a5.575 5.575 0 0 0 5.569-5.568c0-3.072-2.498-5.57-5.569-5.57s-5.569 2.498-5.569 5.569A5.575 5.575 0 0 0 16 28.138zM16 19c1.968 0 3.569 1.602 3.569 3.569S17.968 26.138 16 26.138s-3.569-1.601-3.569-3.568S14.032 19 16 19z"/><path d="M7 46c.234 0 .47-.082.66-.249l16.313-14.362L34.275 41.69a.999.999 0 1 0 1.414-1.414l-4.807-4.807 9.181-10.054 11.261 10.323a1 1 0 0 0 1.351-1.475l-12-11a1.031 1.031 0 0 0-.72-.262 1.002 1.002 0 0 0-.694.325l-9.794 10.727-4.743-4.743a1 1 0 0 0-1.368-.044L6.339 44.249A1 1 0 0 0 7 46z"/></g></g></symbol><symbol id="nc-notebook" viewBox="0 0 60 60"><title>notebook</title><g><g class="nc-icon-wrapper" fill="currentColor"><path d="M57.015 0h-4.029A2.989 2.989 0 0 0 50 2.985v47.281l4 7V59a1 1 0 1 0 2 0v-1.734l4-7V2.985A2.988 2.988 0 0 0 57.015 0zM52 9h6v2h-6V9zm3 45.984L52.723 51h4.554L55 54.984zM58 49h-6V13h6v36zM52 7V2.985c0-.543.442-.985.985-.985h4.029c.544 0 .986.442.986.985V7h-6z"/><path d="M0 0v60h46V0H0zm2 58V2h6v56H2zM44 2v56H10V2h34z"/><path d="M39 24V10H15v14h24zM17 12h20v10H17V12z"/><path d="M20 14h14v2H20z"/><path d="M20 18h14v2H20z"/></g></g></symbol><symbol id="nc-internet" viewBox="0 0 58 58"><title>internet</title><g><g class="nc-icon-wrapper" fill="currentColor"><path d="M50.688 48.222C55.232 43.101 58 36.369 58 29c0-7.667-2.996-14.643-7.872-19.834v-.001c-.004-.006-.01-.008-.013-.013C45.036 3.753 37.92.297 30.005.026l-.001-.001-.565-.015C29.293.005 29.147 0 29 0s-.293.005-.439.01l-.563.015-.001.001c-7.915.271-15.031 3.727-20.11 9.126-.004.005-.01.007-.013.013l-.001.002C2.996 14.357 0 21.333 0 29c0 7.369 2.768 14.101 7.312 19.222.006.009.006.019.013.028.018.025.044.037.063.06 5.106 5.708 12.432 9.385 20.608 9.665l.001.001.563.015c.147.004.293.009.44.009s.293-.005.439-.01l.563-.015.001-.001c8.185-.281 15.519-3.965 20.625-9.685.013-.017.034-.022.046-.04.008-.008.008-.018.014-.027zM2.025 30h12.003a36.956 36.956 0 0 0 2.415 12.217 36.873 36.873 0 0 0-8.111 4.131A26.875 26.875 0 0 1 2.025 30zm6.853-18.977a36.783 36.783 0 0 0 7.9 3.882A36.927 36.927 0 0 0 14.028 28H2.025a26.882 26.882 0 0 1 6.853-16.977zM55.975 28H43.972a36.927 36.927 0 0 0-2.75-13.095 36.783 36.783 0 0 0 7.9-3.882A26.882 26.882 0 0 1 55.975 28zM28 14.963a34.958 34.958 0 0 1-8.471-1.283A34.988 34.988 0 0 1 28 2.644v12.319zm0 2V28H16.028a34.926 34.926 0 0 1 2.666-12.475A36.948 36.948 0 0 0 28 16.963zm2 0c3.179-.085 6.3-.566 9.307-1.438A34.926 34.926 0 0 1 41.973 28H30V16.963zm0-2V2.644a34.988 34.988 0 0 1 8.471 11.036A34.958 34.958 0 0 1 30 14.963zm10.409-1.891a36.93 36.93 0 0 0-7.888-10.835 26.922 26.922 0 0 1 15.183 7.318 34.782 34.782 0 0 1-7.295 3.517zm-22.818 0a34.75 34.75 0 0 1-7.294-3.517A26.92 26.92 0 0 1 25.48 2.237a36.915 36.915 0 0 0-7.889 10.835zM16.028 30H28v10.038a36.883 36.883 0 0 0-9.661 1.541A34.924 34.924 0 0 1 16.028 30zM28 42.038v13.318a34.97 34.97 0 0 1-8.884-11.917A34.867 34.867 0 0 1 28 42.038zm2 13.318V42.038c3.039.085 6.017.556 8.884 1.4A34.964 34.964 0 0 1 30 55.356zm0-15.318V30h11.972a34.91 34.91 0 0 1-2.312 11.58A36.828 36.828 0 0 0 30 40.038zM43.972 30h12.003a26.87 26.87 0 0 1-6.307 16.348 36.873 36.873 0 0 0-8.111-4.131A36.93 36.93 0 0 0 43.972 30zM9.691 47.846a34.85 34.85 0 0 1 7.517-3.781 36.9 36.9 0 0 0 8.271 11.698c-6.151-.805-11.656-3.685-15.788-7.917zm22.83 7.917a36.878 36.878 0 0 0 8.271-11.698 34.874 34.874 0 0 1 7.517 3.781c-4.132 4.232-9.637 7.112-15.788 7.917z"/></g></g></symbol><symbol id="nc-worldwide" viewBox="0 0 60 60"><title>worldwide</title><g><g class="nc-icon-wrapper" fill="currentColor"><path d="M47.007 5.305l.049-.032-1.323-.816c-.078-.048-.16-.088-.238-.136a30.705 30.705 0 0 0-1.323-.754c-.227-.122-.457-.237-.687-.353a29.078 29.078 0 0 0-1.022-.492c-.203-.093-.405-.188-.609-.276a29.737 29.737 0 0 0-1.626-.648c-.113-.041-.228-.076-.342-.116A30.211 30.211 0 0 0 36.305.674c-.053-.011-.104-.025-.157-.036a29.393 29.393 0 0 0-1.865-.325c-.138-.02-.278-.035-.416-.053a30.133 30.133 0 0 0-1.483-.154c-.168-.013-.335-.028-.503-.038A27.927 27.927 0 0 0 30 0a30.32 30.32 0 0 0-2.557.116c-.631.053-1.258.121-1.878.214l-.186.026a29.606 29.606 0 0 0-2.454.494c-.562.136-1.118.285-1.667.452-.174.053-.346.111-.518.167-.492.16-.979.333-1.459.518a29.434 29.434 0 0 0-2.291.984c-.176.085-.349.18-.524.269-.418.212-.83.433-1.236.664-.203.115-.405.229-.606.349-.508.305-1.007.623-1.495.956-.067.046-.138.084-.204.131l-.545.378.005.022C4.887 11.197 0 20.036 0 30c0 16.542 13.458 30 30 30s30-13.458 30-30c0-10.231-5.152-19.278-12.993-24.695zM15.089 6.318c.323-.204.65-.401.98-.591.183-.106.364-.215.55-.317.464-.254.935-.491 1.411-.717.206-.098.414-.189.623-.282.349-.155.7-.302 1.054-.443.195-.078.389-.159.587-.232.506-.188 1.018-.36 1.534-.517.189-.058.382-.109.573-.163.401-.113.804-.218 1.211-.313.182-.043.364-.088.547-.127a28.172 28.172 0 0 1 1.689-.308c.129-.019.26-.032.389-.05a28.745 28.745 0 0 1 1.948-.195A30.417 30.417 0 0 1 30 2c.529 0 1.057.018 1.583.048.151.008.3.023.45.034.379.028.758.06 1.135.103.167.019.333.042.499.064a26.515 26.515 0 0 1 1.571.251c.377.072.752.153 1.125.24.138.032.277.062.414.096.46.115.917.241 1.37.379.046.014.093.025.139.039.484.15.962.316 1.437.491.19.071.376.148.564.223.276.109.55.22.823.338a29.606 29.606 0 0 1 1.784.852c-3.822 1.532-6.196 3.409-8.853 6.866a2.645 2.645 0 0 0-.551 1.686c-.229-.552-.565-.972-1.013-1.266-.926-.608-2.138-.565-3.703.133l-.285.032c-2.006.224-3.111.348-3.211 2.53-.051 1.104.541 2.194 1.508 2.776.245.147.502.254.764.319.028.095.072.192.137.29l.403.557.643-.107a6.964 6.964 0 0 1 1.325-.104c-.047.444.031.898.231 1.303.278.562.756.972 1.346 1.154.564.174.613.343.681.576.321 1.105 1.051 1.922 2.003 2.239.91.305 1.921.108 2.778-.535.514-.389.805-.308 1.928.235.733.354 1.646.796 2.828.948.186.023.297.079.338.122.813.854 1.437 1.916 2.04 2.943.924 1.573 1.797 3.06 3.299 3.839 1.175.611-.141 4.06-.772 5.717-.127.334-.246.645-.345.923-1.524 1.174-2.455 2.507-3.356 3.797-.807 1.155-1.641 2.35-2.934 3.462-1.953 1.681-3.605 2.688-5.523 3.37a.525.525 0 0 1-.594-.163.496.496 0 0 1-.06-.584c1.973-3.532 4.255-8.513 1.301-10.958-2.896-2.396-3.98-5.875-2.764-8.861.517-1.268-.06-2.69-1.337-3.358-.109-.133-.187-.714-.238-1.099-.113-.845-.253-1.896-.878-2.813-.26-.38-.726-.723-1.047-.879-1.221-.598-2.393-.769-3.526-.933-.902-.132-1.755-.256-2.625-.589-3.313-1.271-5.671-6.646-7.393-10.572-.246-.562-.483-1.101-.711-1.606l.361-.23zM30 58C14.561 58 2 45.439 2 30c0-9.077 4.345-17.156 11.061-22.275.177.397.358.807.546 1.235 1.967 4.485 4.415 10.066 8.508 11.636 1.077.413 2.082.56 3.053.7 1.026.149 1.995.29 2.937.752.076.037.233.159.273.209.357.524.454 1.248.547 1.948.129.966.275 2.061 1.253 2.578.318.169.596.509.453.86-1.553 3.812-.242 8.191 3.341 11.157.918.76 1.356 2.842-1.772 8.442a2.497 2.497 0 0 0 .279 2.851 2.525 2.525 0 0 0 2.792.756c2.165-.77 4.006-1.888 6.157-3.739 1.485-1.276 2.392-2.575 3.27-3.832.886-1.269 1.724-2.468 3.097-3.479.2-.146.348-.345.427-.575.108-.316.25-.688.406-1.098 1.028-2.696 2.582-6.771-.174-8.204-.991-.515-1.688-1.702-2.497-3.077-.63-1.073-1.345-2.289-2.316-3.311-.376-.395-.906-.646-1.53-.727-.86-.11-1.547-.443-2.213-.765-1.097-.531-2.464-1.191-4.001-.034-.232.175-.583.356-.943.238-.32-.107-.581-.435-.715-.899-.194-.671-.599-1.495-2.012-1.931a.238.238 0 0 1-.143-.131.404.404 0 0 1-.003-.325c.189-.515.111-1.035-.214-1.428-.357-.432-.994-.654-1.901-.668a.987.987 0 0 0-.263-.471l-.607-.555-.682.402c-.177.105-.377.092-.594-.04-.336-.201-.559-.601-.542-.971.01-.229.025-.359.038-.434.245-.072.83-.138 1.398-.201l.607-.069.147-.068c.893-.415 1.608-.541 1.912-.344.123.081.519.469.474 2.076l-.025.888.878.13c1.141.171 1.987-.052 2.514-.657.545-.626.644-1.555.291-2.761a.637.637 0 0 1 .115-.547c2.767-3.6 5.089-5.257 9.508-6.783C52.866 11.45 58 20.134 58 30c0 15.439-12.561 28-28 28z"/></g></g></symbol><symbol id="nc-compass-05" viewBox="0 0 64 64"><title>compass 05</title><g><g class="nc-icon-wrapper"><circle fill="none" stroke="currentColor" stroke-linecap="square" stroke-miterlimit="10" cx="32" cy="32" r="30" stroke-linejoin="miter"/> <polygon data-color="color-2" fill="none" stroke-linecap="square" stroke-miterlimit="10" points=" 46,18 37,37 18,46 27,27 " stroke-linejoin="miter"/> <circle data-color="color-2" fill="none" stroke-linecap="square" stroke-miterlimit="10" cx="32" cy="32" r="1" stroke-linejoin="miter"/> <circle data-color="color-2" data-stroke="none" cx="32" cy="32" r="1" stroke-linejoin="miter" stroke-linecap="square" fill="currentColor" stroke="none"/></g></g></symbol><symbol id="nc-link-72" viewBox="0 0 48 48"><title>link 72</title><g><g class="nc-icon-wrapper"><path data-color="color-2" fill="none" stroke-linecap="square" stroke-miterlimit="10" d="M26.8,21.2 L26.8,21.2c3.9,3.9,3.9,10.2,0,14.1L21.2,41c-3.9,3.9-10.2,3.9-14.1,0l0,0c-3.9-3.9-3.9-10.2,0-14.1l5-4.8" stroke-linejoin="miter"/> <path fill="none" stroke="currentColor" stroke-linecap="square" stroke-miterlimit="10" d="M21.2,26.8L21.2,26.8 c-3.9-3.9-3.9-10.2,0-14.1L26.8,7C30.7,3.1,37.1,3.1,41,7l0,0c3.9,3.9,3.9,10.2,0,14.1L36,26" stroke-linejoin="miter"/></g></g></symbol></svg>