<svg xmlns="http://www.w3.org/2000/svg" style="display: none;"><symbol id="nc-code" viewBox="0 0 60 60"><title>code</title><g><g class="nc-icon-wrapper" fill="currentColor"><path d="M18 26c-2.206 0-4 1.794-4 4s1.794 4 4 4 4-1.794 4-4-1.794-4-4-4zm0 6c-1.103 0-2-.897-2-2s.897-2 2-2 2 .897 2 2-.897 2-2 2z"/><path d="M30 26c-2.206 0-4 1.794-4 4s1.794 4 4 4 4-1.794 4-4-1.794-4-4-4zm0 6c-1.103 0-2-.897-2-2s.897-2 2-2 2 .897 2 2-.897 2-2 2z"/><path d="M46 30c0-2.206-1.794-4-4-4s-4 1.794-4 4 1.794 4 4 4 4-1.794 4-4zm-4 2c-1.103 0-2-.897-2-2s.897-2 2-2 2 .897 2 2-.897 2-2 2z"/><path d="M2.414 30l13.293-13.293a.999.999 0 1 0-1.414-1.414l-14 14a.999.999 0 0 0 0 1.414l14 14a.997.997 0 0 0 1.414 0 .999.999 0 0 0 0-1.414L2.414 30z"/><path d="M59.707 29.293l-14-14a.999.999 0 1 0-1.414 1.414L57.586 30 44.293 43.293a.999.999 0 1 0 1.414 1.414l14-14a.999.999 0 0 0 0-1.414z"/></g></g></symbol><symbol id="nc-art" viewBox="0 0 58 58"><title>art</title><g><g class="nc-icon-wrapper" fill="currentColor"><path d="M57 6H1a1 1 0 0 0-1 1v44a1 1 0 0 0 1 1h56a1 1 0 0 0 1-1V7a1 1 0 0 0-1-1zm-1 44H2V8h54v42z"/><path d="M16 28.138a5.575 5.575 0 0 0 5.569-5.568c0-3.072-2.498-5.57-5.569-5.57s-5.569 2.498-5.569 5.569A5.575 5.575 0 0 0 16 28.138zM16 19c1.968 0 3.569 1.602 3.569 3.569S17.968 26.138 16 26.138s-3.569-1.601-3.569-3.568S14.032 19 16 19z"/><path d="M7 46c.234 0 .47-.082.66-.249l16.313-14.362L34.275 41.69a.999.999 0 1 0 1.414-1.414l-4.807-4.807 9.181-10.054 11.261 10.323a1 1 0 0 0 1.351-1.475l-12-11a1.031 1.031 0 0 0-.72-.262 1.002 1.002 0 0 0-.694.325l-9.794 10.727-4.743-4.743a1 1 0 0 0-1.368-.044L6.339 44.249A1 1 0 0 0 7 46z"/></g></g></symbol><symbol id="nc-notebook-4" viewBox="0 0 60 60"><title>notebook 4</title><g><g class="nc-icon-wrapper" fill="currentColor"><path d="M57.015 0h-4.029A2.989 2.989 0 0 0 50 2.985v47.281l4 7V59a1 1 0 1 0 2 0v-1.734l4-7V2.985A2.988 2.988 0 0 0 57.015 0zM52 9h6v2h-6V9zm3 45.984L52.723 51h4.554L55 54.984zM58 49h-6V13h6v36zM52 7V2.985c0-.543.442-.985.985-.985h4.029c.544 0 .986.442.986.985V7h-6z"/><path d="M0 0v60h46V0H0zm2 58V2h6v56H2zM44 2v56H10V2h34z"/><path d="M39 24V10H15v14h24zM17 12h20v10H17V12z"/><path d="M20 14h14v2H20z"/><path d="M20 18h14v2H20z"/></g></g></symbol></svg>