<svg width="250" height="250" xmlns="http://www.w3.org/2000/svg"><g fill="none" fill-rule="evenodd"><path d="M15.285 10.714c2.289 8.707 5.795 15.005 10.52 18.895C30.53 33.499 37.262 35.629 46 36" stroke="#FFD7D7"/><path d="M14.412 151.549c24.22-2.106 36.33-4.186 36.33-6.238 0-3.08-36.33-1.572-36.33-6.079 0-4.506 34.897-6.735 36.33-11.853 1.434-5.118-27.811-5.287-30.002-10.742-2.19-5.455 18.357-11.012 19.244-16.047.887-5.036-15.635-1.927-15.084-7.57.552-5.644 10.938-9.265 17.12-13.254 4.12-2.66 8.353-4.655 12.695-5.987" stroke="#FFFCCD" stroke-width="2"/><path d="M40.09 188.246c12.434 1.78 20.79.886 25.066-2.682 6.416-5.351-3.69-12.546 0-18.228 2.46-3.788 8.114-6.416 16.961-7.885" stroke="#FFE8CF"/><path d="M16.232 225.836c40.492-24.55 64.878-37.773 73.157-39.666 12.418-2.84 16.947 13.915 13.57 19.833-2.252 3.945-12.037 6.554-29.357 7.827" stroke="#E0FAC9"/><path stroke="#E3FDFF" d="M90.62 65.326l7.44 13.975 17.926 7.342 6.909 12.183"/><path d="M102.318 108.04c-1.147 6.676.522 12.824 5.008 18.442 6.729 8.428 15.53 6.453 18.139 18.477 2.61 12.024-6 7.467-6 18.797 0 11.33 9.437 9.918 13.545 18.234 2.738 5.545 2.738 11.653 0 18.324" stroke="#E8EDFF" stroke-linecap="round" stroke-linejoin="round"/><path d="M157.107 211.207c19.197-3.498 28.795-7.374 28.795-11.629s-9.598-8.762-28.795-13.521" stroke="#FEEEFF"/><path d="M77.223 17.205c8.926-.086 17.527 2.18 25.802 6.797 8.276 4.618 14.37 10.553 18.286 17.805" stroke="#FDF"/><path d="M105.385 43.254c4.289 9.791 10.509 14 18.66 12.625s15.706-7.906 22.664-19.594" stroke="#EBEBFF"/><path d="M138.174 73.252c2.75 14.945 8.676 25.816 17.775 32.613 13.65 10.196 27.09 2.66 33.791 9.365 4.468 4.47 6.883 11.683 7.246 21.637" stroke="#DBFFDD"/><path d="M164.734 82.535c-4.4-6.35-5.284-16.231-2.654-29.642 3.945-20.117 13.226-17.268 13.813-27.256.39-6.66-3.329-12.642-11.159-17.95" stroke="#FFE9E9"/><path d="M173.316 136.67c-4.369 9.988-2.763 20.693 4.819 32.113 11.372 17.131 27.195 16.963 30.342 20.852 2.097 2.592 2.097 8.139 0 16.64" stroke="#FEFFA8"/><path d="M125 230.35c7.763 8.63 15.893 12.945 24.39 12.945 12.747 0 12.444-15.008 24.868-17.79 12.424-2.78 26.612 8.277 39.99 8.277 8.919 0 16.042.57 21.371 1.71" stroke="#FFEFCA"/><path d="M206.488 168.256c21.806-2.929 33.13-6.241 33.975-9.938 1.267-5.544-26.926-6.492-28.47-14.152-1.546-7.66 21.546-7.975 21.546-20.17 0-8.13-7.182-17.172-21.547-27.125" stroke="#FFE6FE"/><path d="M183.447 77.006c7.774-.21 13.823-4.47 18.145-12.78 4.322-8.309 5.247-17.456 2.775-27.439" stroke="#FFDECC"/><path d="M214.908 13.982c7.323 3.599 11.423 8.301 12.299 14.108 1.315 8.71-7.654 12.647-6.15 26.633 1.004 9.324 4.803 16.706 11.398 22.148" stroke="#DBFEFF"/><path d="M22.5 64.5l37-20M59.5 44.5l-10.927 2.496 2.853 5.279L59.5 44.5z" stroke="#FFF4E3" fill="#FFF5E3" stroke-linecap="square"/><path fill="#E7FFEE" d="M81.79 95.5l-8.523 4.635 1.628-9.817L68 83.365l9.529-1.433L81.79 73l4.262 8.932 9.529 1.433-6.896 6.953 1.628 9.817z"/><path fill="#D3FFFA" d="M150.018 134.037l3.942-1.701.837 2.619-4.158.864 2.916 3.132-2.241 1.701-2.214-3.726-2.052 3.78-2.322-1.62 2.862-3.267-4.185-.864.837-2.619 3.915 1.701-.459-4.293h2.808z"/><path fill="#FFFED8" d="M185.755 89l4.756 3.8-1.817 6.15h-5.878L181 92.8z"/><path d="M199.666 20.766h-1.981l-.292-9.426h2.544l-.27 9.426zm-1 2.085c.458 0 .837.153 1.136.459.299.306.448.674.448 1.105 0 .445-.15.82-.448 1.126-.3.306-.678.459-1.137.459-.445 0-.817-.153-1.116-.459a1.55 1.55 0 0 1-.448-1.126c0-.43.153-.8.459-1.105a1.506 1.506 0 0 1 1.105-.459z" fill="#D3FFDB"/><path fill="#F5FFFD" d="M51 12.1l42.027 34.782v5.206L51 17.306z"/><path fill="#FFEDED" d="M45 225l12 18H33z"/><text font-family="OpenSans-Italic, Open Sans" font-size="18" font-style="italic" fill="#D2FFFA"><tspan x="223" y="220">^</tspan></text></g></svg>